<svg width="30" height="30" viewBox="0 0 30 30" fill="none" xmlns="http://www.w3.org/2000/svg">
<path d="M1.38904 22.6718C1.7475 25.7505 4.34691 28.1948 7.56127 28.3439C9.783 28.4469 12.0526 28.5005 14.5158 28.5005C16.979 28.5005 19.2485 28.4469 21.4703 28.3439C24.6847 28.1948 27.2841 25.7505 27.6424 22.6718C28.1403 18.3959 28.1403 14.7545 27.6424 10.4786C27.2841 7.39991 24.6847 4.95552 21.4703 4.8065C19.2486 4.70349 16.979 4.64994 14.5158 4.64994C12.0526 4.64994 9.783 4.70349 7.56127 4.8065C4.34691 4.95552 1.7475 7.39991 1.38904 10.4786C0.891154 14.7545 0.891156 18.3959 1.38904 22.6718Z" stroke="white" stroke-width="2" stroke-linecap="round" stroke-linejoin="round"/>
<path d="M8.58008 1.4995V7.43966" stroke="white" stroke-width="2" stroke-linecap="round" stroke-linejoin="round"/>
<path d="M20.4517 1.4995V7.43966" stroke="white" stroke-width="2" stroke-linecap="round" stroke-linejoin="round"/>
<path d="M8.58201 15.0726C8.2364 15.0726 8.04199 14.8782 8.04199 14.5326C8.04199 14.187 8.2364 13.9926 8.58201 13.9926" stroke="white" stroke-width="2" stroke-linecap="round" stroke-linejoin="round"/>
<path d="M8.58643 15.0726C8.93203 15.0726 9.12644 14.8782 9.12644 14.5326C9.12644 14.187 8.93203 13.9926 8.58643 13.9926" stroke="white" stroke-width="2" stroke-linecap="round" stroke-linejoin="round"/>
<path d="M8.58201 21.5538C8.2364 21.5538 8.04199 21.3595 8.04199 21.0139C8.04199 20.6682 8.2364 20.4738 8.58201 20.4738" stroke="white" stroke-width="2" stroke-linecap="round" stroke-linejoin="round"/>
<path d="M8.58643 21.5538C8.93203 21.5538 9.12644 21.3595 9.12644 21.0139C9.12644 20.6682 8.93203 20.4738 8.58643 20.4738" stroke="white" stroke-width="2" stroke-linecap="round" stroke-linejoin="round"/>
<path d="M14.5117 15.0726C14.1661 15.0726 13.9717 14.8782 13.9717 14.5326C13.9717 14.187 14.1661 13.9926 14.5117 13.9926" stroke="white" stroke-width="2" stroke-linecap="round" stroke-linejoin="round"/>
<path d="M14.5161 15.0726C14.8617 15.0726 15.0561 14.8782 15.0561 14.5326C15.0561 14.187 14.8617 13.9926 14.5161 13.9926" stroke="white" stroke-width="2" stroke-linecap="round" stroke-linejoin="round"/>
<path d="M14.5117 21.5538C14.1661 21.5538 13.9717 21.3595 13.9717 21.0139C13.9717 20.6682 14.1661 20.4738 14.5117 20.4738" stroke="white" stroke-width="2" stroke-linecap="round" stroke-linejoin="round"/>
<path d="M14.5161 21.5538C14.8617 21.5538 15.0561 21.3595 15.0561 21.0139C15.0561 20.6682 14.8617 20.4738 14.5161 20.4738" stroke="white" stroke-width="2" stroke-linecap="round" stroke-linejoin="round"/>
<path d="M20.4458 15.0726C20.1002 15.0726 19.9058 14.8782 19.9058 14.5326C19.9058 14.187 20.1002 13.9926 20.4458 13.9926" stroke="white" stroke-width="2" stroke-linecap="round" stroke-linejoin="round"/>
<path d="M20.4497 15.0726C20.7953 15.0726 20.9897 14.8782 20.9897 14.5326C20.9897 14.187 20.7953 13.9926 20.4497 13.9926" stroke="white" stroke-width="2" stroke-linecap="round" stroke-linejoin="round"/>
</svg>
