<svg width="95" height="84" viewBox="0 0 95 84" fill="none" xmlns="http://www.w3.org/2000/svg">
<path d="M43.469 71.8994C46.2163 72.2197 49.291 72.5918 52.3692 72.9327C55.3721 73.2651 58.3793 73.5605 61.3837 73.8801C63.7787 74.135 66.1706 74.4241 68.5677 74.6552C69.7068 74.7649 70.857 74.7568 71.9993 74.8395C72.4495 74.8722 72.8628 75.0021 73.1899 75.4069C74.5718 77.1195 75.9783 78.8207 77.7694 80.1299C78.7061 80.8145 79.6552 81.5563 80.7148 81.9856C84.1016 83.3587 87.6286 83.9137 91.2654 83.2138C92.1954 83.0348 93.0923 82.6716 93.9924 82.358C94.2538 82.2671 94.4913 82.0772 94.7069 81.8939C95.0069 81.639 94.9959 81.4721 94.7182 81.1806C94.6657 81.1256 94.6057 81.0769 94.5471 81.0279C90.7814 77.8893 88.2003 73.945 86.5151 69.3645C85.8387 67.5255 85.6061 65.6599 85.8024 63.7303C86.4029 57.8317 86.9717 51.9295 87.6372 46.0383C88.2103 40.9649 88.9116 35.9063 89.5273 30.8375C89.6675 29.6821 89.681 28.5117 89.7677 27.3495C89.8557 26.1682 89.9786 24.9897 90.0563 23.8079C90.2488 20.8739 90.0734 17.9583 89.3913 15.097C88.7848 12.5546 87.2984 10.5342 85.3572 8.83546C85.077 8.59046 84.7081 8.44132 84.3693 8.26946C81.7275 6.92831 78.944 6.13612 75.9627 6.12617C72.8245 6.11588 69.6951 5.94366 66.5697 5.66208C64.4939 5.47495 62.4095 5.38156 60.3358 5.17917C56.5673 4.8113 52.8006 4.42 49.0385 3.98999C44.7835 3.50353 40.5307 2.9922 36.2842 2.43862C32.645 1.96388 29.0231 1.35031 25.3793 0.917815C22.4757 0.573029 19.552 0.393352 16.635 0.171779C15.4348 0.0805229 14.2282 0.0617082 13.0241 0.0301057C12.1471 0.00702525 11.2675 -0.0196147 10.3919 0.0212199C9.34723 0.0702215 8.42472 0.526144 7.63359 1.16529C6.40571 2.15704 5.51659 3.36896 5.32058 5.02046C5.04149 7.37289 4.62817 9.71075 4.38281 12.066C3.65489 19.0466 2.96176 26.0307 2.29313 33.0174C1.83756 37.7762 1.45337 42.5422 1.0223 47.3035C0.725445 50.5795 0.377455 53.8512 0.104396 57.129C0.003197 58.3448 -0.0429675 59.5805 0.0518398 60.7938C0.196004 62.6363 0.764506 64.3187 2.51933 65.3052C3.19967 65.6876 3.87753 66.0952 4.6019 66.3732C6.296 67.0234 8.05437 67.4825 9.84435 67.7652C12.9588 68.257 16.0796 68.7129 19.2054 69.1244C23.2807 69.661 27.3621 70.1517 31.4437 70.6374C33.4564 70.8768 35.4754 71.06 37.4912 71.2702C39.3742 71.4676 41.2568 71.6668 43.469 71.8994ZM23.1834 30.8695C23.1838 30.8663 23.1841 30.8627 23.1845 30.8595C29.1265 31.405 35.0688 31.9518 41.0111 32.4929C41.4095 32.5291 41.8125 32.544 42.212 32.5274C42.6548 32.5085 42.9548 32.2469 43.1018 31.8385C43.1782 31.6265 43.2109 31.3943 43.2339 31.1685C43.4108 29.457 43.5748 27.744 43.7531 26.0325C44.1234 22.4764 44.5098 18.922 44.8712 15.3651C45.1922 12.2074 45.4891 9.04674 45.7976 5.88756C45.8108 5.75476 45.8356 5.62303 45.8587 5.4913C45.9187 5.14971 46.1247 4.94836 46.4627 4.89367C46.6864 4.85746 46.9154 4.8145 47.1395 4.82586C47.6732 4.8532 48.2065 4.90079 48.7377 4.95867C50.0114 5.09751 51.2847 5.24094 52.5567 5.39399C53.2079 5.4721 53.5015 5.76895 53.4841 6.3307C53.4664 6.90238 53.4408 7.47478 53.3854 8.04398C53.1681 10.2704 52.9231 12.4939 52.715 14.721C52.3805 18.3009 52.0674 21.8827 51.7442 25.4637C51.7304 25.616 51.7052 25.7673 51.692 25.9196C51.506 28.0906 51.3089 30.2609 51.1427 32.4336C51.0926 33.0909 51.403 33.4005 52.0776 33.4669C53.8857 33.6455 55.6938 33.8241 57.503 33.9885C65.8837 34.7509 74.2647 35.5079 82.6454 36.2682C83.9595 36.3875 85.2719 36.5356 86.5879 36.6279C87.3133 36.679 87.7994 37.2138 87.6166 37.9392C87.5143 38.344 87.5036 38.7719 87.4493 39.1891C87.2345 40.8388 87.0222 42.4889 86.8016 44.1379C86.7303 44.6705 86.3919 45.0338 85.9352 45.0455C85.441 45.0583 84.9435 45.0583 84.4513 45.0171C73.4732 44.0971 62.4958 43.1707 51.518 42.2453C51.3845 42.2339 51.2514 42.2169 51.1179 42.213C50.6506 42.1988 50.2607 42.4825 50.1542 42.9324C50.0927 43.192 50.0459 43.4572 50.0203 43.7228C49.6336 47.7583 49.2409 51.7931 48.8712 55.8301C48.4338 60.6106 48.0173 65.3928 47.5915 70.1744C47.5848 70.2507 47.5823 70.3274 47.5706 70.4027C47.4822 70.9634 47.0983 71.299 46.5401 71.2294C44.514 70.9776 42.489 70.7159 40.4671 70.4325C39.7676 70.3345 39.4278 69.9567 39.4228 69.3538C39.4193 68.9156 39.4324 68.4746 39.4761 68.0386C39.6575 66.2316 39.8606 64.4267 40.0424 62.6196C40.3357 59.709 40.6138 56.7966 40.9071 53.886C41.1737 51.2417 41.4539 48.5988 41.7252 45.9552C41.8402 44.8342 41.978 43.7139 42.0476 42.5901C42.092 41.8718 41.7412 41.5025 41.0356 41.369C40.8861 41.3405 40.7313 41.3381 40.579 41.3253C36.3098 40.9656 32.041 40.6016 27.7715 40.2476C20.281 39.6265 12.7898 39.0112 5.29856 38.3937C4.93638 38.3639 4.57171 38.3511 4.21272 38.3C3.30548 38.1711 2.9543 37.7315 3.02248 36.821C3.18156 34.704 3.34525 32.5874 3.51001 30.4711C3.52634 30.2619 3.54729 30.051 3.5931 29.8468C3.69891 29.3735 3.90523 29.1949 4.38352 29.1828C4.68819 29.175 4.99497 29.1978 5.29928 29.2255C11.2615 29.7723 17.2226 30.3212 23.1834 30.8695ZM52.9675 48.0381C52.9725 48.0385 52.9771 48.0385 52.982 48.0388C53.0048 47.7722 53.0204 47.5044 53.0516 47.2388C53.122 46.6405 53.4042 46.3817 53.9923 46.4111C55.1758 46.4708 56.3585 46.5443 57.541 46.6182C58.118 46.654 58.5988 46.8937 59.0011 47.313C59.5568 47.8918 60.1242 48.4596 60.6902 49.0285C62.6986 51.0453 64.7108 53.0587 66.7174 55.0773C68.4552 56.8254 70.1841 58.5816 71.9226 60.329C74.1461 62.5635 76.3753 64.7928 78.6024 67.0241C80.3299 68.7551 82.0588 70.4851 83.7852 72.2176C85.2684 73.7064 86.7345 75.2123 88.2355 76.6831C89.2017 77.6301 90.0982 78.6488 91.1915 79.4687C91.7995 79.9246 92.3292 80.4857 92.8832 81.0112C93.2031 81.3145 93.142 81.5698 92.7291 81.748C92.6591 81.7782 92.5838 81.7956 92.5117 81.8208C90.329 82.5764 88.0949 82.591 85.8312 82.3257C84.7333 82.1972 83.842 81.7221 83.0836 80.9477C82.0006 79.8416 80.9179 78.7351 79.8321 77.6319C77.5531 75.3167 75.2756 72.9998 72.9907 70.6903C70.2625 67.9328 67.5266 65.183 64.7957 62.4283C62.0378 59.6462 59.2805 56.863 56.5251 54.0785C55.3959 52.9372 54.2682 51.7949 53.1511 50.642C53.0325 50.5195 52.927 50.3224 52.9249 50.1587C52.9171 49.4517 52.9497 48.7447 52.9675 48.0381ZM87.6819 74.4901C87.6443 74.5249 87.6066 74.5597 87.5686 74.5945C87.4135 74.4819 87.2409 74.3868 87.106 74.2536C86.7391 73.8911 86.3933 73.5076 86.03 73.1411C83.6364 70.7244 81.2424 68.3081 78.8449 65.8949C75.679 62.7081 72.5085 59.5254 69.3422 56.3389C66.015 52.9905 62.6897 49.6399 59.365 46.2886C59.1001 46.0216 58.7994 45.8487 58.4148 45.8206C56.6415 45.6903 54.8697 45.5426 53.096 45.4244C52.3425 45.3743 52.132 45.5621 52.0755 46.316C51.9857 47.5144 51.9104 48.7149 51.8671 49.9158C51.8539 50.2787 51.8554 50.6512 52.1774 50.9672C53.5143 52.2789 54.826 53.6161 56.1434 54.9481C58.4819 57.3129 60.8187 59.6796 63.1548 62.0469C64.9271 63.8429 66.695 65.6435 68.4687 67.4381C70.5377 69.5317 72.6104 71.6217 74.6834 73.7118C76.9314 75.9779 79.1819 78.2419 81.4296 80.5084C81.5716 80.6515 81.6998 80.8085 81.8436 80.969C81.4875 81.1735 81.4878 81.1724 81.2421 81.0844C80.4076 80.7843 79.6446 80.3554 78.9635 79.7897C78.4206 79.3388 77.894 78.8683 77.3617 78.4042C76.0714 77.2793 75.005 75.9527 73.9703 74.6009C73.622 74.1457 73.2303 73.8467 72.6327 73.8744C72.012 73.9032 71.5295 73.5875 71.1226 73.1738C69.7154 71.7428 68.327 70.2934 66.9276 68.8542C65.0219 66.8945 63.114 64.9369 61.2047 62.9811C59.4822 61.2167 57.7597 59.4527 56.0301 57.695C54.8906 56.5371 53.7394 55.3905 52.5918 54.2404C52.415 54.0632 52.225 53.8775 51.9452 53.9922C51.6782 54.1015 51.718 54.3576 51.7034 54.5848C51.6061 56.0733 51.5003 57.5611 51.408 59.0496C51.2255 61.989 51.0532 64.9291 50.8697 67.8681C50.8111 68.8034 50.7486 69.7391 50.6477 70.6701C50.619 70.9368 50.5217 71.2926 50.3296 71.4257C49.9145 71.7141 49.3808 71.648 48.9582 71.4396C48.584 71.2549 48.3596 70.8825 48.4199 70.3892C48.5495 69.3268 48.6504 68.2612 48.7526 67.1956C49.1212 63.3504 49.4863 59.5049 49.8516 55.6597C50.2135 51.8525 50.5696 48.0445 50.9393 44.238C51.0231 43.3741 51.2372 43.2165 52.1277 43.2562C52.2996 43.264 52.4714 43.2747 52.6429 43.2893C54.3963 43.4359 56.149 43.585 57.9024 43.7303C65.9845 44.3982 74.0662 45.065 82.1483 45.7326C83.292 45.827 84.4361 45.9165 85.5791 46.0191C86.0716 46.0632 86.388 46.3558 86.4466 46.7819C86.536 47.4331 86.2896 48.0466 85.8582 48.2174C85.7552 48.2583 85.6359 48.2704 85.5233 48.2725C85.3327 48.2757 85.1413 48.2675 84.9509 48.2515C82.0158 48.0048 79.0814 47.7495 76.1456 47.5094C72.2954 47.1948 68.4445 46.8919 64.594 46.5848C64.4608 46.5741 64.3259 46.5578 64.1931 46.5667C63.6459 46.6029 63.4762 46.9221 63.8032 47.3592C64.0987 47.7537 64.4378 48.1177 64.7747 48.4791C65.6731 49.4435 66.5789 50.4012 67.4851 51.3582C68.5092 52.4398 69.5407 53.5135 70.5612 54.5983C71.4379 55.5304 72.2958 56.4799 73.1749 57.4095C74.6311 58.9492 76.1026 60.4742 77.5588 62.0139C78.6876 63.2073 79.7973 64.4189 80.9257 65.6123C82.3166 67.0834 83.7437 68.5215 85.1022 70.0217C85.6075 70.5799 85.9963 71.2542 86.3787 71.9104C86.7722 72.5861 87.0928 73.3041 87.4443 74.004C87.526 74.1652 87.6031 74.3282 87.6819 74.4901ZM38.027 44.5093C37.9368 45.5696 37.8193 46.5191 37.7862 47.4714C37.7593 48.249 37.401 48.7533 36.754 49.1258C35.7935 49.6786 34.8451 50.2535 33.8935 50.8216C28.215 54.212 22.5358 57.6013 16.859 60.9944C14.4143 62.4556 11.9841 63.9413 9.52797 65.3826C8.71909 65.8569 7.83848 66.1754 6.87123 65.8413C6.18947 65.6059 5.48641 65.412 4.83945 65.1017C4.17615 64.7835 3.51391 64.4128 2.95536 63.9416C2.48771 63.5471 2.11985 63.0053 1.80134 62.4726C1.49526 61.9617 1.6664 61.4678 2.14825 61.1315C2.41421 60.9458 2.68941 60.7718 2.96886 60.6067C8.69601 57.2238 14.4246 53.8434 20.1521 50.4612C23.46 48.5076 26.7662 46.5507 30.0738 44.597C30.5223 44.3321 30.9924 44.1326 31.5297 44.1588C33.4006 44.2508 35.2715 44.341 37.1425 44.4355C37.4233 44.4497 37.7039 44.482 38.027 44.5093ZM36.4607 28.5178C36.46 28.5231 36.4593 28.5288 36.4586 28.5341C35.6057 28.4222 34.7538 28.2973 33.8988 28.2056C33.559 28.1691 33.2895 28.0505 33.0331 27.8261C31.279 26.2889 29.5156 24.7617 27.7551 23.2323C22.0109 18.242 16.2668 13.2516 10.5219 8.26235C9.42464 7.30966 8.32566 6.35946 7.22348 5.41245C6.84816 5.09003 6.59746 4.67672 6.73808 4.20375C7.13116 2.88284 7.88251 1.83322 9.2304 1.3322C10.3706 0.90858 11.547 0.915684 12.7354 1.07228C13.3068 1.14755 13.7829 1.38758 14.198 1.77817C15.0754 2.60339 15.9578 3.42363 16.8398 4.24352C23.3514 10.2973 29.8629 16.3508 36.3748 22.4039C37.467 23.4195 38.5532 24.4417 39.6572 25.4441C40.0073 25.7619 40.2026 26.0883 40.1174 26.5861C40.0375 27.0552 40.0421 27.5384 40.0013 28.015C39.937 28.7663 39.736 28.9311 38.9637 28.8402C38.1282 28.7415 37.2948 28.6257 36.4607 28.5178ZM55.7766 27.1525C55.7904 27.1528 55.8046 27.1532 55.8188 27.1535C55.8856 26.661 55.9839 26.1699 56.0098 25.6753C56.0368 25.1601 56.2794 24.8437 56.7079 24.5841C59.5987 22.8332 62.4795 21.0653 65.3656 19.3065C70.6986 16.0572 76.0401 12.822 81.3596 9.55096C82.2164 9.02402 83.0381 9.0265 83.8303 9.49769C84.511 9.90249 85.1498 10.4135 85.7108 10.9734C86.3116 11.5732 86.8961 12.2045 87.1926 13.0539C87.4621 13.8255 87.1166 14.7086 86.4913 15.108C86.0734 15.3751 85.6597 15.6502 85.2297 15.8967C80.147 18.8101 75.0601 21.7158 69.9781 24.63C66.8154 26.4437 63.6576 28.2653 60.5031 30.0925C60.1253 30.3113 59.756 30.4157 59.3128 30.3628C58.8022 30.3017 58.2813 30.3315 57.7675 30.2889C57.2771 30.2484 56.7893 30.1721 56.3024 30.0993C55.8959 30.0386 55.7116 29.7797 55.7201 29.3792C55.7357 28.6371 55.7574 27.8946 55.7766 27.1525ZM69.5286 34.2687C69.5329 34.2194 69.5371 34.1696 69.5414 34.1203C67.1403 33.9157 64.7389 33.7155 62.3381 33.506C59.2514 33.2365 56.165 32.9609 53.0786 32.6847C52.1522 32.6016 52.0514 32.4855 52.1316 31.5935C52.3539 29.1186 52.5762 26.644 52.8081 24.1701C52.9632 22.514 53.1447 20.86 53.2963 19.2036C53.656 15.2799 54.0047 11.3551 54.358 7.43075C54.3907 7.06892 54.3882 6.69857 54.4695 6.3481C54.521 6.12653 54.6485 5.84389 54.8278 5.7466C55.2762 5.50301 55.7606 5.61521 56.1934 5.84601C56.5854 6.05516 56.5418 6.4518 56.5102 6.81185C56.4569 7.42153 56.3759 8.02836 56.3138 8.63733C56.1253 10.4827 55.9335 12.3281 55.7556 14.1745C55.5266 16.5543 55.3025 18.9344 55.0927 21.316C55.0295 22.0339 55.4652 22.345 56.1377 22.1021C56.2268 22.0698 56.3145 22.0279 56.3951 21.9782C57.5019 21.2993 58.6133 20.6274 59.7119 19.9357C65.8936 16.0444 72.0728 12.1491 78.2512 8.25243C78.9419 7.81674 79.657 7.61114 80.473 7.86999C80.7787 7.96693 81.1942 7.94242 81.2751 8.29928C81.3628 8.68526 80.9545 8.82552 80.6878 8.98709C72.2961 14.084 63.9023 19.1773 55.5017 24.2592C55.1683 24.4609 55.0241 24.6804 54.9932 25.0674C54.8967 26.268 54.7354 27.4632 54.6428 28.6641C54.6023 29.1899 54.6332 29.7279 54.6943 30.2534C54.7646 30.8574 55.0508 31.1177 55.6583 31.2068C55.9214 31.2455 56.1924 31.2334 56.4601 31.2409C57.4149 31.2675 58.3726 31.2555 59.3235 31.3314C59.9449 31.3812 60.4782 31.2832 60.9952 30.9252C61.4327 30.6223 61.9231 30.3969 62.3854 30.1291C70.0339 25.7009 77.6817 21.2709 85.3302 16.843C85.9576 16.4797 86.5815 16.109 87.2249 15.7759C87.722 15.5185 88.0611 15.6811 88.2507 16.2059C88.3988 16.6161 88.2934 17.0283 87.9003 17.3135C87.531 17.5815 87.1305 17.8099 86.7313 18.0332C79.5043 22.0719 72.2755 26.1071 65.0478 30.144C64.7808 30.2932 64.5088 30.437 64.2577 30.6099C63.9026 30.8542 63.9144 31.2029 64.2808 31.4291C64.3884 31.4955 64.529 31.5225 64.6579 31.5385C65.3983 31.6294 66.1386 31.7203 66.8804 31.7952C73.5215 32.4652 80.163 33.1314 86.8045 33.8003C86.9937 33.8195 87.1866 33.8373 87.3687 33.888C87.8807 34.0311 88.07 34.3206 87.9983 34.8123C87.9106 35.4124 87.6073 35.7171 87.0829 35.7068C86.6245 35.6979 86.1653 35.6841 85.7091 35.6453C80.3153 35.1884 74.9223 34.7282 69.5286 34.2687ZM18.7087 1.35456C18.8944 1.33468 19.0581 1.28887 19.2154 1.3045C21.5923 1.54418 23.9746 1.74551 26.3433 2.04982C29.3559 2.43686 32.3549 2.93043 35.3649 3.33665C37.145 3.57669 38.9371 3.72795 40.721 3.94136C41.0541 3.98113 41.3776 4.11641 41.6993 4.22648C41.9759 4.32129 42.1413 4.51694 42.1421 4.82586C42.1428 5.16887 42.1701 5.5133 42.1438 5.85418C41.9585 8.25597 41.76 10.6567 41.5704 13.0581C41.369 15.6119 41.1734 18.166 40.9742 20.7198C40.9476 21.0606 40.9312 21.4079 40.5424 21.6398C40.3972 21.5251 40.2441 21.4182 40.1071 21.2939C39.4441 20.6928 38.7869 20.0859 38.1253 19.4834C35.7193 17.2907 33.3093 15.1023 30.9072 12.9058C29.2909 11.4279 27.6898 9.93303 26.0724 8.45624C23.8648 6.44078 21.6431 4.44024 19.4408 2.41875C19.1426 2.14534 18.7978 1.87263 18.7087 1.35456ZM27.5044 27.4784C27.4853 27.5285 27.4661 27.5786 27.4469 27.6286C27.1117 27.6201 26.7744 27.6322 26.4413 27.5999C23.644 27.3297 20.8484 27.0388 18.05 26.7789C14.0894 26.4111 10.1263 26.0677 6.16531 25.7044C5.78928 25.67 5.41256 25.594 5.04753 25.4949C4.22658 25.2716 4.0231 24.9808 4.10193 24.1343C4.22799 22.7825 4.36363 21.4317 4.51241 20.0824C4.892 16.6423 5.27975 13.2034 5.66999 9.76472C5.69342 9.55984 5.7474 9.35282 5.82161 9.16001C5.96968 8.77474 6.22924 8.6984 6.57367 8.92601C6.68446 8.99916 6.77961 9.09645 6.8801 9.18522C7.76923 9.96889 8.65907 10.7522 9.54678 11.5376C15.4028 16.7183 21.2589 21.8993 27.1131 27.0818C27.2516 27.2043 27.3741 27.3456 27.5044 27.4784ZM10.0897 66.576C9.99099 66.1112 10.3241 66.0242 10.5535 65.8875C12.9343 64.4664 15.3226 63.0575 17.7045 61.6382C24.456 57.6155 31.2033 53.5852 37.9617 49.5739C38.348 49.3445 38.5514 49.0633 38.6175 48.6471C38.6445 48.4774 38.67 48.3066 38.685 48.1354C38.7812 47.0301 38.8774 45.9247 38.9676 44.8189C39.0464 43.8517 38.8171 43.5616 37.8541 43.4934C35.6043 43.3344 33.3537 43.1873 31.1018 43.0592C30.8763 43.0464 30.6185 43.1561 30.4147 43.2754C28.09 44.6403 25.772 46.0173 23.4533 47.3926C16.4475 51.5481 9.44274 55.7058 2.43303 59.8553C2.21039 59.9871 1.94587 60.0772 1.69092 60.1117C1.56983 60.128 1.36672 59.9988 1.30103 59.8802C1.0127 59.3593 1.27866 58.4843 1.79566 58.1807C2.8144 57.5831 3.83208 56.9823 4.85792 56.3972C10.3393 53.2692 15.8254 50.1502 21.3047 47.0187C23.192 45.9399 25.0643 44.8346 26.9445 43.7437C27.1554 43.6216 27.3241 43.4806 27.2854 43.2065C27.2438 42.9132 27.0506 42.7868 26.7751 42.7527C26.5475 42.7247 26.3213 42.6842 26.093 42.6646C22.3575 42.3447 18.6209 42.0337 14.8858 41.7073C11.9322 41.4492 8.97971 41.1808 6.02826 40.9002C5.15369 40.8171 4.28302 40.6854 3.41306 40.5601C3.0001 40.5004 2.79096 40.2384 2.80552 39.8606C2.82327 39.41 3.01643 39.1873 3.47236 39.177C3.8523 39.1685 4.23438 39.2136 4.61432 39.2456C16.3182 40.2298 28.0218 41.2152 39.7257 42.2009C41.0551 42.3128 41.1482 42.4086 41.0186 43.7509C40.8439 45.5586 40.6347 47.3628 40.4519 49.1694C40.1671 51.9852 39.8887 54.8018 39.6142 57.6183C39.284 61.0062 38.9623 64.3947 38.6324 67.7826C38.5713 68.4107 38.5024 69.0389 38.4137 69.6635C38.3501 70.1112 38.0913 70.2973 37.6613 70.2561C37.2504 70.217 37.0764 70.0171 37.0757 69.5662C37.0754 69.3751 37.0949 69.1841 37.1066 68.9934C37.2039 67.3898 37.3005 65.7863 37.3992 64.1831C37.6265 60.5002 37.7163 56.8069 38.2155 53.1439C38.2514 52.8815 38.2596 52.6073 38.2276 52.3453C38.1733 51.8972 37.8995 51.7275 37.466 51.8642C37.178 51.9551 36.8861 52.0591 36.6269 52.2104C34.8987 53.2188 33.1787 54.2414 31.4558 55.2591C27.3212 57.7014 23.1866 60.1436 19.0524 62.5863C16.9524 63.8269 14.8333 65.0367 12.7628 66.3253C11.8776 66.8778 11.0303 66.8892 10.0897 66.576ZM20.2462 29.7464C20.2497 29.7041 20.2533 29.6615 20.2568 29.6192C18.6945 29.4861 17.1314 29.3583 15.5697 29.2191C12.1595 28.9158 8.74963 28.6094 5.34082 28.2955C5.02089 28.266 4.70771 28.1673 4.3892 28.114C4.11366 28.0679 4.01245 27.8644 3.95386 27.6393C3.7962 27.0367 4.20881 26.4643 4.82807 26.4572C5.36176 26.4512 5.8983 26.4742 6.4295 26.5268C8.46555 26.7278 10.4984 26.9586 12.5348 27.155C16.9127 27.5768 21.2919 27.9834 25.6708 28.3974C26.1278 28.4407 26.583 28.5039 27.0403 28.5355C27.7452 28.5838 28.4511 28.6378 29.157 28.6406C29.6009 28.6424 29.7223 28.3633 29.4599 28.0057C29.3143 27.8076 29.13 27.6336 28.945 27.4696C27.9859 26.6202 27.0201 25.7786 26.0582 24.9328C19.6546 19.3026 13.251 13.6724 6.84956 8.03973C6.67806 7.88882 6.52077 7.71979 6.3727 7.54545C6.14651 7.27913 6.11953 6.96383 6.1664 6.62863C6.20368 6.35983 6.3695 6.22916 6.59924 6.31615C6.89361 6.4273 7.19401 6.57464 7.4305 6.77811C9.03831 8.16293 10.6277 9.56978 12.2277 10.9642C17.186 15.2856 22.1452 19.6059 27.1067 23.9233C28.9525 25.5297 30.8081 27.1248 32.6535 28.7315C33.0423 29.0699 33.4656 29.2808 33.9915 29.2855C34.2965 29.2879 34.6011 29.3337 34.9054 29.3653C36.5779 29.5393 38.2489 29.7268 39.9231 29.8838C40.5911 29.9463 40.9649 29.6089 41.0086 28.9332C41.0676 28.0185 41.0505 27.0967 41.1496 26.1873C41.205 25.6803 41.0349 25.3802 40.6809 25.0585C38.9964 23.5288 37.3367 21.9725 35.6639 20.4297C29.9016 15.1144 24.1375 9.80094 18.3749 4.4864C17.447 3.63065 16.5242 2.76993 15.5928 1.91844C15.4249 1.76504 15.2562 1.58466 15.3975 1.38759C15.4966 1.24946 15.7348 1.155 15.917 1.14399C16.4723 1.11097 16.9659 1.29242 17.3693 1.69296C17.572 1.89429 17.7822 2.08853 17.9928 2.28169C20.2824 4.37917 22.5741 6.47452 24.8623 8.57342C27.2633 10.7756 29.6626 12.9796 32.0598 15.1865C34.5674 17.4949 37.07 19.809 39.5787 22.1167C39.9981 22.5026 40.41 22.906 40.874 23.2316C41.3396 23.5583 41.6836 23.3815 41.7596 22.8236C41.8342 22.2743 41.8843 21.7215 41.9265 21.1686C42.3235 15.9819 42.7162 10.7945 43.1114 5.60776C43.1274 5.39826 43.1327 5.1845 43.1789 4.98104C43.2755 4.55565 43.6661 4.31064 44.1383 4.35396C44.6195 4.39835 44.8538 4.6373 44.8655 5.13868C44.8723 5.42417 44.846 5.71181 44.8165 5.99694C44.6248 7.84124 44.4206 9.68411 44.2346 11.5291C44.0407 13.4508 43.8702 15.3751 43.676 17.2968C43.3721 20.3022 43.0536 23.3058 42.7496 26.3113C42.6882 26.9188 42.6804 27.5313 42.6193 28.1389C42.5316 29.0138 42.4126 29.8855 42.3171 30.7598C42.2372 31.4912 42.0618 31.6524 41.3314 31.5864C39.2194 31.3957 37.1087 31.1876 34.996 31.0048C30.0799 30.579 25.1627 30.165 20.2462 29.7464ZM36.6635 60.6276C36.4873 63.7147 36.3581 66.1591 36.2047 68.6021C36.1198 69.955 35.8841 70.1272 34.5152 69.9692C33.3946 69.8399 32.2732 69.7185 31.1522 69.5928C29.4041 69.3964 27.6539 69.215 25.9083 68.998C23.6131 68.7125 21.3189 68.4132 19.0282 68.0918C17.5138 67.8791 16.0061 67.6189 14.4963 67.3756C14.2325 67.333 13.915 67.2989 13.8664 66.9783C13.8185 66.6623 14.1171 66.5327 14.3426 66.3999C17.4783 64.5509 20.6187 62.7091 23.7541 60.8595C26.3639 59.3199 28.967 57.7688 31.5765 56.2292C33.2014 55.2705 34.8309 54.3192 36.465 53.3761C36.6624 53.2621 36.9511 53.1037 37.1109 53.1712C37.412 53.2983 37.2529 53.6431 37.2323 53.8935C37.0303 56.3524 36.8179 58.8107 36.6635 60.6276ZM84.9694 68.0386C84.7152 68.2935 84.5213 68.1849 84.3288 67.9782C83.8342 67.4474 83.3328 66.9236 82.8382 66.3928C81.9136 65.401 80.99 64.4079 80.0693 63.4126C79.1226 62.3892 78.1848 61.3573 77.2336 60.3379C75.9574 58.9708 74.6695 57.6147 73.3919 56.2491C72.5308 55.3287 71.6793 54.3995 70.8229 53.4752C69.2786 51.8091 67.7312 50.1463 66.1947 48.4735C66.0946 48.3645 65.9891 48.139 66.0371 48.0442C66.1106 47.8997 66.3037 47.7935 66.4688 47.7264C66.5811 47.6806 66.7323 47.7257 66.8655 47.7367C72.7531 48.2228 78.6404 48.7096 84.528 49.1975C84.7564 49.2163 84.9861 49.2355 85.2112 49.2763C85.7122 49.3665 85.8951 49.5455 85.9871 50.0536C86.0205 50.2375 86.0187 50.4332 86.0016 50.6203C85.8404 52.3716 85.6842 54.1232 85.5031 55.8724C85.2396 58.4201 84.9801 60.9682 84.674 63.5109C84.5003 64.9522 84.4975 66.3686 84.9162 67.7691C84.9421 67.8589 84.9527 67.9537 84.9694 68.0386ZM24.9262 43.4721C24.9535 43.5417 24.9808 43.611 25.0078 43.6806C24.8523 43.8201 24.7142 43.9888 24.5381 44.0942C23.1806 44.9063 21.822 45.7173 20.4514 46.507C17.2141 48.3723 13.9708 50.2269 10.7282 52.0825C8.2621 53.494 5.79356 54.9012 3.32572 56.3094C2.91241 56.5456 2.50868 56.8037 2.07831 57.004C1.60463 57.2245 1.32729 57.0715 1.20337 56.5541C1.16005 56.3737 1.16112 56.1756 1.17816 55.9888C1.26623 55.0368 1.36566 54.0856 1.46153 53.1343C1.81378 49.652 2.16566 46.17 2.51861 42.6877C2.5946 41.9389 2.94151 41.5934 3.695 41.5685C4.11294 41.5547 4.53514 41.577 4.95165 41.6207C5.99702 41.7308 7.03777 41.8867 8.08421 41.9808C13.4183 42.4616 18.7534 42.9285 24.0882 43.3997C24.3669 43.4252 24.6467 43.4483 24.9262 43.4721ZM66.4646 30.8446C66.4397 30.7878 66.4145 30.7314 66.3897 30.6745C66.5324 30.5503 66.6595 30.399 66.8204 30.3067C67.7312 29.7829 68.6508 29.2748 69.5662 28.7589C75.4415 25.4481 81.3156 22.1351 87.1954 18.8321C87.4532 18.6873 87.7575 18.6052 88.0505 18.5484C88.5345 18.4547 88.8771 18.7096 88.8966 19.2025C88.9407 20.3245 88.9641 21.4477 88.9669 22.5708C88.9684 23.1045 88.9013 23.6385 88.8686 24.1726C88.7212 26.5932 88.576 29.0142 88.4269 31.4351C88.4162 31.6063 88.3967 31.7792 88.3569 31.9457C88.2135 32.5476 87.9486 32.8107 87.3346 32.837C86.8052 32.8597 86.2701 32.8189 85.7414 32.7667C80.473 32.2472 75.2053 31.7203 69.9377 31.1947C68.7797 31.079 67.6221 30.9615 66.4646 30.8446ZM55.9591 21.0777C55.9896 20.7201 56.0035 20.5174 56.0244 20.3153C56.1657 18.9461 56.3159 17.578 56.4487 16.2081C56.6774 13.8482 56.8908 11.4869 57.1213 9.12698C57.1898 8.42356 57.2423 7.71199 57.3943 7.02455C57.5932 6.1237 57.7732 5.96249 58.6769 6.02108C59.3065 6.06192 59.9332 6.14215 60.562 6.19364C64.9821 6.55583 69.3965 7.00181 73.8354 7.08952C74.7707 7.10798 75.7056 7.16444 76.6399 7.21912C76.8923 7.23404 77.2357 7.17367 77.3046 7.52449C77.3717 7.86537 77.028 7.94278 76.8167 8.07629C74.117 9.77963 71.413 11.4766 68.7098 13.1746C64.7115 15.6861 60.7136 18.1983 56.7133 20.7059C56.518 20.8281 56.2985 20.9119 55.9591 21.0777ZM69.8947 73.4131C69.8801 73.4735 69.8652 73.5335 69.8507 73.5939C69.4984 73.6191 69.1409 73.6968 68.7954 73.6606C66.6471 73.4348 64.5024 73.1724 62.3545 72.943C59.255 72.6121 56.1533 72.3017 53.0531 71.9772C51.9523 71.8621 51.7183 71.5404 51.6789 70.4148C51.675 70.3005 51.6906 70.1858 51.6984 70.0711C51.8373 68.0098 51.9786 65.9489 52.1149 63.8877C52.2438 61.9411 52.3646 59.9938 52.4956 58.0472C52.5375 57.4223 52.6 56.7988 52.6522 56.1884C52.9796 56.0449 53.2136 56.1365 53.4163 56.3414C53.645 56.5722 53.8648 56.8123 54.0913 57.0452C56.9029 59.9384 59.7148 62.8313 62.5267 65.7245C64.8319 68.0961 67.1375 70.4674 69.4391 72.8425C69.6074 73.0165 69.7434 73.2221 69.8947 73.4131Z" fill="#591472"/>
<path d="M23.183 30.8695C23.1833 30.8663 23.1837 30.8627 23.1841 30.8595C29.126 31.4049 35.0683 31.9517 41.0107 32.4929C41.4091 32.5291 41.8121 32.544 42.2116 32.5273C42.6544 32.5085 42.9544 32.2468 43.1014 31.8385C43.1778 31.6265 43.2104 31.3943 43.2335 31.1684C43.4103 29.4569 43.5744 27.744 43.7526 26.0325C44.123 22.4763 44.5093 18.922 44.8708 15.3651C45.1918 12.2073 45.4886 9.04671 45.7972 5.88753C45.8103 5.75473 45.8352 5.62301 45.8583 5.49127C45.9183 5.14968 46.1242 4.94833 46.4623 4.89365C46.686 4.85743 46.915 4.81447 47.1391 4.82583C47.6728 4.85318 48.2061 4.90077 48.7373 4.95864C50.011 5.09748 51.2843 5.24092 52.5562 5.39396C53.2074 5.47208 53.5011 5.76893 53.4837 6.33067C53.4659 6.90236 53.4404 7.47475 53.385 8.04395C53.1677 10.2703 52.9227 12.4939 52.7146 14.721C52.3801 18.3009 52.0669 21.8826 51.7438 25.4637C51.7299 25.616 51.7047 25.7673 51.6916 25.9196C51.5055 28.0906 51.3085 30.2608 51.1423 32.4336C51.0922 33.0909 51.4025 33.4005 52.0772 33.4669C53.8853 33.6455 55.6934 33.8241 57.5025 33.9885C65.8832 34.7509 74.2643 35.5079 82.6449 36.2681C83.9591 36.3875 85.2715 36.5355 86.5874 36.6278C87.3129 36.679 87.799 37.2137 87.6161 37.9392C87.5139 38.344 87.5032 38.7718 87.4489 39.1891C87.2341 40.8388 87.0217 42.4888 86.8012 44.1379C86.7298 44.6705 86.3914 45.0337 85.9348 45.0455C85.4405 45.0582 84.943 45.0582 84.4509 45.017C73.4728 44.097 62.4954 43.1706 51.5176 42.2453C51.3841 42.2339 51.2509 42.2169 51.1174 42.213C50.6501 42.1988 50.2602 42.4825 50.1537 42.9324C50.0923 43.1919 50.0454 43.4572 50.0199 43.7228C49.6332 47.7583 49.2404 51.7931 48.8708 55.8301C48.4333 60.6106 48.0168 65.3928 47.5911 70.1744C47.5843 70.2507 47.5819 70.3274 47.5701 70.4027C47.4817 70.9634 47.0979 71.2989 46.5397 71.2293C44.5136 70.9776 42.4885 70.7159 40.4667 70.4325C39.7672 70.3345 39.4274 69.9567 39.4224 69.3538C39.4188 68.9156 39.432 68.4746 39.4756 68.0386C39.6571 66.2315 39.8602 64.4266 40.042 62.6196C40.3353 59.709 40.6133 56.7966 40.9066 53.886C41.1733 51.2417 41.4535 48.5988 41.7247 45.9552C41.8398 44.8342 41.9776 43.7139 42.0472 42.5901C42.0915 41.8717 41.7407 41.5024 41.0352 41.3689C40.8857 41.3405 40.7309 41.338 40.5785 41.3253C36.3094 40.9656 32.0405 40.6016 27.771 40.2476C20.2805 39.6265 12.7893 39.0112 5.29812 38.3937C4.93594 38.3639 4.57127 38.3511 4.21228 38.2999C3.30504 38.171 2.95387 37.7314 3.02204 36.821C3.18112 34.704 3.34481 32.5874 3.50957 30.4711C3.5259 30.2619 3.54686 30.051 3.59266 29.8468C3.69848 29.3735 3.90478 29.1949 4.38308 29.1828C4.68774 29.175 4.99453 29.1977 5.29884 29.2254C11.261 29.7723 17.2222 30.3212 23.183 30.8695Z" fill="#FF6161"/>
<path d="M52.968 48.0382C52.973 48.0385 52.9776 48.0385 52.9826 48.0389C53.0053 47.7722 53.0209 47.5045 53.0522 47.2389C53.1225 46.6406 53.4048 46.3817 53.9928 46.4112C55.1763 46.4708 56.3591 46.5443 57.5415 46.6182C58.1185 46.6541 58.5993 46.8937 59.0016 47.3131C59.5573 47.8919 60.1247 48.4597 60.6908 49.0285C62.6991 51.0454 64.7114 53.0587 66.7179 55.0774C68.4557 56.8254 70.1846 58.5817 71.9231 60.329C74.1467 62.5636 76.3759 64.7928 78.603 67.0241C80.3304 68.7552 82.0593 70.4852 83.7858 72.2176C85.2689 73.7065 86.7351 75.2124 88.236 76.6831C89.2022 77.6301 90.0988 78.6489 91.1921 79.4688C91.8 79.9247 92.3298 80.4857 92.8837 81.0113C93.2036 81.3145 93.1426 81.5698 92.7296 81.748C92.6597 81.7782 92.5844 81.7956 92.5123 81.8208C90.3296 82.5765 88.0954 82.591 85.8318 82.3258C84.7338 82.1972 83.8426 81.7221 83.0841 80.9477C82.0011 79.8416 80.9185 78.7352 79.8326 77.6319C77.5537 75.3168 75.2762 72.9999 72.9912 70.6904C70.2631 67.9328 67.5272 65.183 64.7962 62.4283C62.0383 59.6462 59.2811 56.8631 56.5256 54.0785C55.3965 52.9373 54.2687 51.795 53.1516 50.642C53.033 50.5195 52.9276 50.3224 52.9254 50.1587C52.9176 49.4518 52.9503 48.7448 52.968 48.0382Z" fill="#FF6161"/>
<path d="M87.6821 74.49C87.6445 74.5248 87.6069 74.5596 87.5689 74.5944C87.4137 74.4819 87.2411 74.3867 87.1062 74.2536C86.7394 73.891 86.3935 73.5075 86.0303 73.1411C83.6367 70.7244 81.2427 68.308 78.8452 65.8949C75.6792 62.708 72.5087 59.5254 69.3424 56.3389C66.0153 52.9904 62.6899 49.6399 59.3653 46.2886C59.1004 46.0216 58.7996 45.8486 58.4151 45.8206C56.6418 45.6903 54.8699 45.5426 53.0963 45.4243C52.3428 45.3743 52.1322 45.5621 52.0758 46.3159C51.9859 47.5143 51.9106 48.7149 51.8673 49.9158C51.8542 50.2787 51.8556 50.6512 52.1777 50.9672C53.5145 52.2789 54.8262 53.6161 56.1436 54.948C58.4822 57.3129 60.819 59.6795 63.1551 62.0469C64.9273 63.8429 66.6953 65.6435 68.4689 67.4381C70.538 69.5317 72.6106 71.6217 74.6836 73.7117C76.9316 75.9779 79.1821 78.2419 81.4298 80.5084C81.5718 80.6515 81.7 80.8084 81.8438 80.9689C81.4877 81.1734 81.488 81.1724 81.2423 81.0843C80.4079 80.7843 79.6448 80.3553 78.9638 79.7897C78.4208 79.3387 77.8942 78.8682 77.362 78.4041C76.0716 77.2792 75.0053 75.9526 73.9706 74.6008C73.6222 74.1456 73.2306 73.8467 72.633 73.8744C72.0123 73.9031 71.5297 73.5874 71.1228 73.1738C69.7156 71.7428 68.3272 70.2933 66.9278 68.8542C65.0221 66.8945 63.1142 64.9369 61.205 62.9811C59.4824 61.2167 57.7599 59.4526 56.0303 57.695C54.8909 56.537 53.7397 55.3905 52.592 54.2403C52.4152 54.0632 52.2252 53.8774 51.9454 53.9921C51.6784 54.1015 51.7182 54.3575 51.7036 54.5848C51.6063 56.0733 51.5005 57.5611 51.4082 59.0496C51.2257 61.989 51.0535 64.9291 50.8699 67.8681C50.8113 68.8034 50.7488 69.739 50.648 70.6701C50.6192 70.9367 50.5219 71.2925 50.3298 71.4257C49.9147 71.714 49.381 71.648 48.9585 71.4395C48.5842 71.2549 48.3598 70.8824 48.4202 70.3892C48.5498 69.3268 48.6506 68.2612 48.7529 67.1956C49.1215 63.3504 49.4865 59.5048 49.8519 55.6596C50.2137 51.8524 50.5698 48.0445 50.9395 44.238C51.0233 43.3741 51.2374 43.2164 52.128 43.2562C52.2998 43.264 52.4717 43.2747 52.6432 43.2892C54.3966 43.4359 56.1493 43.585 57.9027 43.7302C65.9847 44.3981 74.0664 45.065 82.1485 45.7325C83.2922 45.827 84.4363 45.9165 85.5793 46.0191C86.0718 46.0631 86.3882 46.3557 86.4468 46.7818C86.5363 47.433 86.2898 48.0466 85.8584 48.2174C85.7554 48.2582 85.6361 48.2703 85.5236 48.2725C85.3329 48.2756 85.1415 48.2675 84.9512 48.2515C82.0161 48.0047 79.0816 47.7494 76.1458 47.5094C72.2956 47.1948 68.4448 46.8919 64.5942 46.5847C64.4611 46.5741 64.3261 46.5577 64.1933 46.5666C63.6461 46.6028 63.4764 46.9221 63.8035 47.3592C64.0989 47.7537 64.438 48.1176 64.775 48.4791C65.6733 49.4435 66.5791 50.4012 67.4853 51.3581C68.5094 52.4397 69.5409 53.5135 70.5614 54.5983C71.4381 55.5304 72.296 56.4799 73.1752 57.4095C74.6314 58.9491 76.1028 60.4742 77.559 62.0138C78.6879 63.2073 79.7975 64.4188 80.9259 65.6123C82.3168 67.0834 83.7439 68.5214 85.1024 70.0217C85.6077 70.5799 85.9965 71.2542 86.379 71.9104C86.7724 72.5861 87.093 73.3041 87.4446 74.004C87.5262 74.1652 87.6033 74.3281 87.6821 74.49Z" fill="white"/>
<path d="M38.0273 44.5093C37.9372 45.5696 37.8196 46.5191 37.7866 47.4714C37.7596 48.249 37.4013 48.7533 36.7544 49.1257C35.7939 49.6786 34.8454 50.2535 33.8938 50.8216C28.2153 54.212 22.5361 57.6012 16.8594 60.9944C14.4146 62.4556 11.9844 63.9412 9.52832 65.3825C8.71944 65.8569 7.83883 66.1754 6.87158 65.8413C6.18982 65.6059 5.48676 65.412 4.8398 65.1017C4.1765 64.7835 3.51426 64.4128 2.95571 63.9416C2.48807 63.5471 2.1202 63.0052 1.80169 62.4726C1.49561 61.9616 1.66676 61.4677 2.1486 61.1315C2.41456 60.9458 2.68976 60.7718 2.96922 60.6066C8.69636 57.2238 14.4249 53.8434 20.1524 50.4612C23.4604 48.5075 26.7666 46.5507 30.0742 44.597C30.5226 44.3321 30.9928 44.1325 31.53 44.1588C33.401 44.2508 35.2719 44.341 37.1428 44.4354C37.4237 44.4496 37.7042 44.4819 38.0273 44.5093Z" fill="#FF6161"/>
<path d="M36.4607 28.5178C36.46 28.5231 36.4592 28.5288 36.4585 28.5341C35.6056 28.4222 34.7538 28.2973 33.8987 28.2057C33.5589 28.1691 33.2894 28.0505 33.033 27.8261C31.2789 26.2889 29.5156 24.7617 27.7551 23.2323C22.0109 18.242 16.2667 13.2516 10.5218 8.26236C9.4246 7.30967 8.32561 6.35946 7.22343 5.41245C6.84811 5.09004 6.59742 4.67672 6.73803 4.20375C7.13111 2.88284 7.88246 1.83322 9.23036 1.3322C10.3705 0.908584 11.5469 0.915687 12.7354 1.07228C13.3067 1.14756 13.7829 1.38759 14.198 1.77818C15.0754 2.60339 15.9578 3.42363 16.8398 4.24352C23.3513 10.2973 29.8629 16.3508 36.3747 22.4039C37.467 23.4195 38.5532 24.4417 39.6571 25.4442C40.0072 25.762 40.2025 26.0883 40.1173 26.5861C40.0374 27.0552 40.042 27.5385 40.0012 28.015C39.9369 28.7663 39.736 28.9311 38.9637 28.8402C38.1281 28.7415 37.2948 28.6257 36.4607 28.5178Z" fill="#FF6161"/>
<path d="M55.7767 27.1525C55.7905 27.1529 55.8047 27.1532 55.8189 27.1536C55.8857 26.6611 55.984 26.17 56.0099 25.6754C56.0369 25.1601 56.2795 24.8438 56.708 24.5842C59.5988 22.8333 62.4796 21.0653 65.3657 19.3066C70.6987 16.0572 76.0402 12.8221 81.3597 9.55102C82.2165 9.02408 83.0382 9.02655 83.8304 9.49775C84.5111 9.90255 85.1499 10.4135 85.7109 10.9735C86.3117 11.5732 86.8962 12.2046 87.1927 13.0539C87.4622 13.8255 87.1167 14.7086 86.4914 15.1081C86.0735 15.3751 85.6598 15.6503 85.2298 15.8967C80.1471 18.8102 75.0602 21.7158 69.9782 24.63C66.8155 26.4438 63.6577 28.2653 60.5032 30.0926C60.1254 30.3113 59.7561 30.4158 59.3129 30.3628C58.8023 30.3018 58.2814 30.3316 57.7676 30.289C57.2772 30.2485 56.7894 30.1722 56.3025 30.0994C55.896 30.0387 55.7117 29.7798 55.7202 29.3793C55.7358 28.6371 55.7575 27.8947 55.7767 27.1525Z" fill="#FF6161"/>
<path d="M69.5278 34.2686C69.532 34.2193 69.5363 34.1696 69.5406 34.1202C67.1395 33.9157 64.7381 33.7154 62.3373 33.5059C59.2506 33.2364 56.1642 32.9609 53.0778 32.6846C52.1514 32.6015 52.0506 32.4854 52.1308 31.5934C52.3531 29.1185 52.5754 26.6439 52.8072 24.1701C52.9624 22.514 53.1439 20.86 53.2955 19.2035C53.6552 15.2798 54.0039 11.3551 54.3572 7.43069C54.3898 7.06886 54.3874 6.69851 54.4687 6.34804C54.5202 6.12647 54.6476 5.84383 54.827 5.74654C55.2754 5.50295 55.7598 5.61515 56.1926 5.84595C56.5846 6.05509 56.5409 6.45173 56.5093 6.81179C56.4561 7.42147 56.3751 8.0283 56.313 8.63727C56.1244 10.4826 55.9327 12.328 55.7548 14.1744C55.5258 16.5542 55.3017 18.9343 55.0918 21.3159C55.0286 22.0339 55.4643 22.3449 56.1369 22.102C56.226 22.0697 56.3137 22.0278 56.3943 21.9781C57.5011 21.2992 58.6125 20.6274 59.7111 19.9357C65.8928 16.0443 72.072 12.1491 78.2504 8.25237C78.9411 7.81668 79.6562 7.61108 80.4722 7.86993C80.7779 7.96687 81.1934 7.94236 81.2743 8.29922C81.362 8.6852 80.9537 8.82546 80.687 8.98702C72.2953 14.0839 63.9015 19.1772 55.5009 24.2592C55.1675 24.4609 55.0233 24.6803 54.9924 25.0674C54.8958 26.2679 54.7346 27.4631 54.642 28.664C54.6015 29.1899 54.6324 29.7278 54.6935 30.2533C54.7638 30.8573 55.05 31.1176 55.6575 31.2067C55.9206 31.2454 56.1915 31.2334 56.4593 31.2408C57.4141 31.2675 58.3718 31.2554 59.3227 31.3314C59.9441 31.3811 60.4774 31.2831 60.9944 30.9252C61.4319 30.6223 61.9222 30.3968 62.3846 30.1291C70.0331 25.7008 77.6809 21.2708 85.3294 16.8429C85.9568 16.4797 86.5807 16.1089 87.2241 15.7759C87.7212 15.5184 88.0603 15.6811 88.2499 16.2059C88.398 16.616 88.2925 17.0283 87.8995 17.3134C87.5302 17.5815 87.1296 17.8098 86.7305 18.0331C79.5035 22.0719 72.2747 26.107 65.047 30.144C64.78 30.2931 64.508 30.4369 64.2569 30.6099C63.9018 30.8542 63.9136 31.2029 64.28 31.429C64.3876 31.4954 64.5282 31.5224 64.6571 31.5384C65.3975 31.6293 66.1378 31.7202 66.8796 31.7951C73.5207 32.4652 80.1622 33.1313 86.8037 33.8003C86.9929 33.8195 87.1857 33.8372 87.3679 33.888C87.8799 34.0311 88.0692 34.3205 87.9975 34.8123C87.9098 35.4124 87.6065 35.717 87.0821 35.7067C86.6236 35.6979 86.1645 35.684 85.7082 35.6453C80.3145 35.1883 74.9215 34.7281 69.5278 34.2686Z" fill="white"/>
<path d="M18.7087 1.35465C18.8944 1.33476 19.0581 1.28896 19.2154 1.30458C21.5923 1.54426 23.9746 1.7456 26.3434 2.0499C29.3559 2.43694 32.3549 2.93052 35.365 3.33673C37.145 3.57677 38.9371 3.72804 40.7211 3.94144C41.0541 3.98121 41.3776 4.11649 41.6993 4.22657C41.9759 4.32137 42.1414 4.51702 42.1421 4.82594C42.1428 5.16896 42.1702 5.51338 42.1439 5.85427C41.9585 8.25605 41.76 10.6568 41.5704 13.0582C41.3691 15.612 41.1734 18.1661 40.9742 20.7198C40.9476 21.0607 40.9313 21.408 40.5425 21.6399C40.3972 21.5252 40.2442 21.4183 40.1071 21.294C39.4442 20.6929 38.7869 20.086 38.1254 19.4834C35.7194 17.2908 33.3094 15.1024 30.9073 12.9059C29.2909 11.428 27.6899 9.93311 26.0724 8.45632C23.8649 6.44086 21.6431 4.44033 19.4409 2.41883C19.1426 2.14542 18.7978 1.87271 18.7087 1.35465Z" fill="#607596"/>
<path d="M27.5039 27.4785C27.4847 27.5286 27.4656 27.5787 27.4464 27.6287C27.1112 27.6202 26.7738 27.6323 26.4408 27.6C23.6434 27.3297 20.8479 27.0389 18.0494 26.779C14.0888 26.4111 10.1257 26.0678 6.16478 25.7045C5.78875 25.6701 5.41202 25.5941 5.04699 25.495C4.22604 25.2717 4.02257 24.9809 4.1014 24.1343C4.22745 22.7825 4.3631 21.4318 4.51188 20.0825C4.89146 16.6424 5.27922 13.2034 5.66945 9.7648C5.69289 9.55992 5.74686 9.3529 5.82107 9.16009C5.96914 8.77483 6.2287 8.69849 6.57314 8.92609C6.68392 8.99924 6.77908 9.09653 6.87956 9.1853C7.76869 9.96897 8.65854 10.7523 9.54625 11.5377C15.4023 16.7184 21.2583 21.8994 27.1126 27.0819C27.2511 27.2044 27.3736 27.3457 27.5039 27.4785Z" fill="#607596"/>
<path d="M10.0892 66.576C9.99051 66.1112 10.3236 66.0242 10.553 65.8875C12.9338 64.4664 15.3221 63.0575 17.704 61.6382C24.4556 57.6154 31.2029 53.5852 37.9612 49.5739C38.3475 49.3445 38.551 49.0633 38.617 48.6471C38.644 48.4774 38.6696 48.3066 38.6845 48.1354C38.7807 47.0301 38.8769 45.9247 38.9671 44.8189C39.046 43.8517 38.8166 43.5616 37.8536 43.4934C35.6038 43.3343 33.3533 43.1873 31.1013 43.0591C30.8758 43.0464 30.618 43.1561 30.4142 43.2754C28.0895 44.6403 25.7715 46.0173 23.4528 47.3926C16.447 51.5481 9.44227 55.7058 2.43256 59.8553C2.20992 59.9871 1.9454 60.0772 1.69045 60.1117C1.56936 60.128 1.36625 59.9988 1.30056 59.8802C1.01223 59.3593 1.27819 58.4843 1.79519 58.1807C2.81393 57.5831 3.83161 56.9823 4.85744 56.3971C10.3389 53.2692 15.8249 50.1502 21.3042 47.0187C23.1915 45.9399 25.0638 44.8346 26.944 43.7437C27.1549 43.6216 27.3236 43.4806 27.2849 43.2065C27.2433 42.9132 27.0502 42.7868 26.7746 42.7527C26.547 42.7247 26.3208 42.6842 26.0925 42.6646C22.357 42.3447 18.6205 42.0337 14.8854 41.7073C11.9318 41.4492 8.97924 41.1807 6.02778 40.9002C5.15321 40.8171 4.28255 40.6854 3.4126 40.5601C2.99963 40.5004 2.79049 40.2384 2.80505 39.8605C2.8228 39.4099 3.01596 39.1873 3.47189 39.177C3.85183 39.1685 4.2339 39.2136 4.61384 39.2455C16.3178 40.2298 28.0213 41.2152 39.7252 42.2009C41.0547 42.3128 41.1477 42.4086 41.0181 43.7508C40.8434 45.5586 40.6342 47.3628 40.4514 49.1694C40.1666 51.9852 39.8882 54.8018 39.6137 57.6183C39.2835 61.0061 38.9618 64.3947 38.6319 67.7826C38.5709 68.4107 38.502 69.0388 38.4132 69.6634C38.3496 70.1112 38.0908 70.2973 37.6608 70.2561C37.25 70.217 37.076 70.0171 37.0752 69.5662C37.0749 69.3751 37.0944 69.1841 37.1061 68.9934C37.2034 67.3898 37.3 65.7863 37.3987 64.1831C37.626 60.5001 37.7158 56.8069 38.2151 53.1439C38.2509 52.8815 38.2591 52.6073 38.2271 52.3453C38.1728 51.8972 37.899 51.7274 37.4655 51.8642C37.1775 51.9551 36.8856 52.0591 36.6264 52.2104C34.8982 53.2188 33.1782 54.2414 31.4553 55.2591C27.3207 57.7014 23.1861 60.1436 19.0519 62.5863C16.9519 63.8269 14.8328 65.0367 12.7623 66.3253C11.8771 66.8778 11.0298 66.8892 10.0892 66.576Z" fill="white"/>
<path d="M20.2463 29.7462C20.2498 29.704 20.2534 29.6614 20.2569 29.6191C18.6946 29.486 17.1315 29.3581 15.5698 29.219C12.1596 28.9157 8.74971 28.6093 5.34091 28.2954C5.02098 28.2659 4.7078 28.1672 4.38929 28.1139C4.11374 28.0678 4.01254 27.8643 3.95395 27.6392C3.79629 27.0366 4.20889 26.4642 4.82816 26.4571C5.36185 26.4511 5.89838 26.4741 6.42959 26.5267C8.46564 26.7277 10.4985 26.9585 12.5349 27.1549C16.9127 27.5767 21.292 27.9833 25.6709 28.3973C26.1279 28.4406 26.5831 28.5038 27.0404 28.5354C27.7453 28.5837 28.4512 28.6377 29.1571 28.6405C29.6009 28.6423 29.7224 28.3632 29.46 28.0056C29.3144 27.8075 29.1301 27.6335 28.9451 27.4695C27.986 26.6201 27.0202 25.7785 26.0583 24.9327C19.6547 19.3025 13.2511 13.6723 6.84965 8.03963C6.67814 7.88872 6.52085 7.71969 6.37278 7.54534C6.1466 7.27903 6.11961 6.96373 6.16648 6.62853C6.20377 6.35973 6.36959 6.22906 6.59933 6.31605C6.89369 6.42719 7.19409 6.57454 7.43058 6.778C9.0384 8.16283 10.6277 9.56967 12.2277 10.9641C17.1861 15.2855 22.1452 19.6058 27.1068 23.9232C28.9526 25.5296 30.8082 27.1247 32.6536 28.7314C33.0424 29.0698 33.4657 29.2807 33.9915 29.2854C34.2966 29.2878 34.6012 29.3336 34.9055 29.3652C36.578 29.5392 38.249 29.7267 39.9232 29.8837C40.5911 29.9462 40.965 29.6088 41.0087 28.9331C41.0677 28.0184 41.0506 27.0966 41.1497 26.1872C41.2051 25.6802 41.035 25.3801 40.681 25.0584C38.9965 23.5287 37.3368 21.9724 35.664 20.4296C29.9017 15.1143 24.1376 9.80084 18.375 4.4863C17.4471 3.63055 16.5243 2.76983 15.5929 1.91834C15.4249 1.76494 15.2563 1.58456 15.3976 1.38749C15.4966 1.24936 15.7349 1.15489 15.9171 1.14389C16.4724 1.11086 16.966 1.29232 17.3694 1.69285C17.5721 1.89419 17.7823 2.08842 17.9929 2.28159C20.2825 4.37907 22.5742 6.47442 24.8623 8.57332C27.2634 10.7755 29.6627 12.9795 32.0599 15.1864C34.5675 17.4948 37.0701 19.8089 39.5788 22.1166C39.9982 22.5025 40.41 22.9059 40.8741 23.2315C41.3397 23.5582 41.6837 23.3814 41.7597 22.8235C41.8343 22.2742 41.8844 21.7214 41.9266 21.1685C42.3236 15.9818 42.7163 10.7944 43.1115 5.60766C43.1275 5.39816 43.1328 5.1844 43.179 4.98093C43.2756 4.55554 43.6662 4.31054 44.1384 4.35386C44.6196 4.39824 44.8539 4.6372 44.8656 5.13858C44.8724 5.42407 44.8461 5.7117 44.8166 5.99684C44.6249 7.84114 44.4207 9.68401 44.2347 11.529C44.0408 13.4507 43.8703 15.375 43.6761 17.2967C43.3722 20.3021 43.0536 23.3057 42.7497 26.3112C42.6883 26.9187 42.6804 27.5312 42.6194 28.1388C42.5317 29.0137 42.4127 29.8854 42.3172 30.7597C42.2373 31.4911 42.0619 31.6523 41.3315 31.5863C39.2195 31.3956 37.1088 31.1875 34.9961 31.0047C30.0799 30.5789 25.1627 30.1649 20.2463 29.7462Z" fill="white"/>
<path d="M36.6633 60.6277C36.4872 63.7148 36.3579 66.1592 36.2045 68.6022C36.1197 69.9551 35.8839 70.1273 34.5151 69.9693C33.3944 69.84 32.2731 69.7186 31.1521 69.5929C29.404 69.3965 27.6538 69.2151 25.9082 68.9981C23.6129 68.7126 21.3187 68.4133 19.0281 68.0919C17.5137 67.8792 16.006 67.619 14.4961 67.3757C14.2323 67.3331 13.9149 67.299 13.8662 66.9784C13.8183 66.6624 14.1169 66.5328 14.3424 66.4C17.4781 64.551 20.6185 62.7092 23.7539 60.8596C26.3638 59.32 28.9669 57.7689 31.5764 56.2293C33.2012 55.2706 34.8307 54.3193 36.4648 53.3762C36.6622 53.2622 36.9509 53.1038 37.1107 53.1713C37.4118 53.2984 37.2528 53.6432 37.2322 53.8936C37.0301 56.3525 36.8178 58.8108 36.6633 60.6277Z" fill="#607596"/>
<path d="M84.9695 68.0387C84.7153 68.2936 84.5214 68.185 84.3289 67.9783C83.8343 67.4474 83.3329 66.9237 82.8383 66.3929C81.9136 65.4011 80.9901 64.4079 80.0694 63.4126C79.1227 62.3893 78.1849 61.3574 77.2336 60.338C75.9575 58.9709 74.6696 57.6148 73.392 56.2492C72.5309 55.3288 71.6794 54.3995 70.823 53.4753C69.2787 51.8092 67.7313 50.1463 66.1948 48.4735C66.0947 48.3645 65.9892 48.1391 66.0371 48.0443C66.1107 47.8997 66.3038 47.7936 66.4689 47.7264C66.5811 47.6806 66.7324 47.7257 66.8656 47.7367C72.7532 48.2229 78.6405 48.7097 84.5281 49.1976C84.7564 49.2164 84.9862 49.2355 85.2113 49.2764C85.7123 49.3666 85.8952 49.5455 85.9872 50.0537C86.0205 50.2376 86.0188 50.4333 86.0017 50.6204C85.8405 52.3717 85.6843 54.1233 85.5032 55.8724C85.2397 58.4202 84.9802 60.9682 84.6741 63.511C84.5004 64.9523 84.4976 66.3687 84.9162 67.7692C84.9422 67.859 84.9528 67.9538 84.9695 68.0387Z" fill="#607596"/>
<path d="M24.9262 43.4721C24.9535 43.5417 24.9808 43.6109 25.0078 43.6805C24.8523 43.8201 24.7142 43.9887 24.538 44.0942C23.1806 44.9063 21.822 45.7173 20.4514 46.507C17.2141 48.3722 13.9708 50.2268 10.7281 52.0825C8.26207 53.494 5.79354 54.9012 3.32571 56.3094C2.91239 56.5455 2.50866 56.8037 2.0783 57.004C1.60461 57.2245 1.32728 57.0714 1.20335 56.5541C1.16003 56.3737 1.1611 56.1755 1.17815 55.9888C1.26621 55.0368 1.36564 54.0855 1.46152 53.1343C1.81376 49.652 2.16564 46.17 2.5186 42.6877C2.59458 41.9388 2.9415 41.5933 3.69498 41.5685C4.11292 41.5546 4.53511 41.577 4.95163 41.6207C5.99699 41.7307 7.03775 41.8866 8.08418 41.9807C13.4183 42.4615 18.7534 42.9284 24.0882 43.3996C24.3669 43.4252 24.6467 43.4483 24.9262 43.4721Z" fill="#607596"/>
<path d="M66.4649 30.8446C66.44 30.7877 66.4148 30.7313 66.39 30.6745C66.5327 30.5502 66.6598 30.3989 66.8207 30.3066C67.7315 29.7829 68.6511 29.2747 69.5666 28.7588C75.4418 25.448 81.3159 22.1351 87.1958 18.8321C87.4535 18.6872 87.7579 18.6052 88.0508 18.5484C88.5348 18.4546 88.8774 18.7096 88.897 19.2024C88.941 20.3245 88.9644 21.4476 88.9673 22.5707C88.9687 23.1044 88.9016 23.6385 88.8689 24.1725C88.7215 26.5931 88.5763 29.0141 88.4272 31.4351C88.4165 31.6062 88.397 31.7791 88.3572 31.9457C88.2138 32.5475 87.9489 32.8106 87.3349 32.8369C86.8055 32.8596 86.2704 32.8188 85.7417 32.7666C80.4733 32.2471 75.2056 31.7202 69.938 31.1947C68.78 31.0789 67.6225 30.9614 66.4649 30.8446Z" fill="#607596"/>
<path d="M55.9599 21.0777C55.9904 20.7202 56.0043 20.5174 56.0253 20.3154C56.1666 18.9462 56.3168 17.578 56.4496 16.2081C56.6782 13.8482 56.8917 11.4869 57.1221 9.12704C57.1906 8.42362 57.2432 7.71205 57.3952 7.02461C57.594 6.12376 57.774 5.96255 58.6777 6.02114C59.3073 6.06198 59.934 6.14221 60.5629 6.1937C64.9829 6.55589 69.3974 7.00187 73.8363 7.08958C74.7715 7.10804 75.7065 7.1645 76.6407 7.21918C76.8932 7.2341 77.2365 7.17373 77.3054 7.52455C77.3725 7.86543 77.0288 7.94284 76.8175 8.07635C74.1178 9.77969 71.4139 11.4766 68.7106 13.1747C64.7124 15.6862 60.7145 18.1984 56.7141 20.706C56.5188 20.8281 56.2994 20.9119 55.9599 21.0777Z" fill="#607596"/>
<path d="M69.894 73.4132C69.8795 73.4735 69.8646 73.5335 69.85 73.5939C69.4978 73.6191 69.1402 73.6968 68.7947 73.6606C66.6465 73.4348 64.5017 73.1724 62.3538 72.943C59.2543 72.6121 56.1527 72.3017 53.0524 71.9772C51.9517 71.8621 51.7177 71.5404 51.6783 70.4148C51.6743 70.3005 51.69 70.1858 51.6978 70.0711C51.8366 68.0098 51.9779 65.9489 52.1143 63.8877C52.2432 61.9411 52.3639 59.9938 52.4949 58.0473C52.5368 57.4223 52.5993 56.7988 52.6515 56.1884C52.9789 56.0449 53.2129 56.1366 53.4157 56.3414C53.6444 56.5722 53.8641 56.8123 54.0907 57.0452C56.9022 59.9384 59.7141 62.8313 62.5261 65.7245C64.8313 68.0961 67.1368 70.4674 69.4385 72.8425C69.6068 73.0165 69.7428 73.2221 69.894 73.4132Z" fill="#607596"/>
</svg>
