<svg width="113" height="98" viewBox="0 0 113 98" fill="none" xmlns="http://www.w3.org/2000/svg">
<path d="M30.0011 97.9997H0L1.2154 93.5926C4.2219 85.353 5.94904 70.4069 6.01301 55.0137V54.9498C6.07698 54.9498 6.07698 53.9918 6.07698 49.5846C6.07698 40.5147 4.15793 13.8161 1.2154 1.93588C13.6252 1.93588 29.4893 9.21731 43.6903 9.21731C53.1575 9.21731 60.2131 6.89317 68.4782 1.90827C70.1413 4.39929 70.4289 6.53468 70.4289 9.34506C70.4289 18.7981 61.8572 28.5067 48.5518 28.5067H47.1445C36.3979 27.9958 28.4658 14.9658 24.8196 14.9658C23.3484 14.9658 22.6447 15.2852 22.6447 21.7363V28.89C22.6447 34.2552 22.6447 41.0257 22.8366 48.1155C25.2035 44.347 30.6407 43.389 34.6068 43.389C40.8757 43.389 47.4644 46.4548 53.6693 46.4548C57.5713 46.4548 58.9469 45.2413 62.3372 41.2812C62.5291 43.0057 62.3372 45.4329 62.3372 46.9019C62.3372 56.9937 60.9617 60.6345 54.5648 60.6345C49.3195 60.6345 42.5388 57.6325 35.1825 52.3311C32.24 50.2233 29.6173 48.7542 27.5703 48.7542C25.2674 48.7542 23.6682 50.4788 23.0285 54.886C23.6682 72.8979 25.2674 91.868 30.0011 97.9997Z" fill="#D9B1B9"/>
<path d="M45.0336 98L23.0285 97.9721C24.3774 97.9721 23.4763 90.5145 27.5703 93.0414C52.134 93.0414 52.402 25.4224 70.0134 7.95661L68.4782 1.90827C72.6678 -0.618643 91.1869 -1.11325 95.4727 7.95661C102.253 22.2001 102.893 71.5095 113 97.6971H102.253C94.2573 97.6971 89.5877 87.4137 87.0289 81.6652C80.4402 66.5913 68.5739 66.4636 66.0151 65.9526C62.3372 87.7804 56.8037 97.9721 45.0336 98ZM82.871 65.9526C80.952 54.5195 77.3375 31.545 72.6678 14.9382C65.1836 24.3274 63.0409 32.5474 62.9769 42.4476C62.9769 56.4995 74.6831 58.6712 82.871 65.9526Z" fill="#D9B1B9"/>
</svg>
